<?xml version="1.0" encoding="UTF-8" standalone="no"?><!DOCTYPE svg PUBLIC "-//W3C//DTD SVG 1.1//EN" "http://www.w3.org/Graphics/SVG/1.1/DTD/svg11.dtd"><svg width="100%" height="100%" viewBox="0 0 7353 3180" version="1.1" xmlns="http://www.w3.org/2000/svg" xmlns:xlink="http://www.w3.org/1999/xlink" xml:space="preserve" xmlns:serif="http://www.serif.com/" style="fill-rule:evenodd;clip-rule:evenodd;stroke-linejoin:round;stroke-miterlimit:2;"><g><g id="Logo"><g transform="matrix(5.55556,0,0,5.55556,-8720.14,-4966.59)"><g transform="matrix(288,0,0,288,2632.58,1456.02)"></g><text x="1805.81px" y="1456.02px" style="font-family:'Inter-Regular_ExtraBold', 'Inter';font-size:288px;fill:none;stroke:#000;stroke-width:15px;">SHIFT</text><g transform="matrix(288,0,0,288,2632.58,1456.02)"></g><text x="1805.81px" y="1456.02px" style="font-family:'Inter-Regular_ExtraBold', 'Inter';font-size:288px;fill:#fff;">SHIFT</text></g><g id="Barbell"><path id="RIGHT-35-LBS" serif:id="RIGHT 35 LBS" d="M6985.83,2573.01l0,-1966.93l325.224,0l-0,1966.93l-325.224,0Z" style="fill:none;stroke:#000;stroke-width:83.33px;stroke-linecap:round;stroke-miterlimit:1.5;"/><path d="M6985.83,2573.01l0,-1966.93l325.224,0l-0,1966.93l-325.224,0Z" style="fill:#fff;"/><path id="RIGHT-45-LBS" serif:id="RIGHT 45 LBS" d="M6588.39,2809.17l0,-2439.25l325.223,-0l0,2439.25l-325.223,-0Z" style="fill:none;stroke:#000;stroke-width:83.33px;stroke-linecap:round;stroke-miterlimit:1.5;"/><path d="M6588.39,2809.17l0,-2439.25l325.223,-0l0,2439.25l-325.223,-0Z" style="fill:#fff;"/><rect id="BAR" x="836.557" y="1426.93" width="5679.61" height="325.223" style="fill:none;stroke:#000;stroke-width:83.33px;stroke-linecap:round;stroke-miterlimit:1.5;"/><rect x="836.557" y="1426.93" width="5679.61" height="325.223" style="fill:#fff;"/><path id="LEFT-45-LBS" serif:id="LEFT 45 LBS" d="M764.335,2809.17l0,-2439.25l-325.223,-0l-0,2439.25l325.223,-0Z" style="fill:none;stroke:#000;stroke-width:83.33px;stroke-linecap:round;stroke-miterlimit:1.5;"/><path d="M764.335,2809.17l0,-2439.25l-325.223,-0l-0,2439.25l325.223,-0Z" style="fill:#fff;"/><path id="LEFT-35-LBS" serif:id="LEFT 35 LBS" d="M366.89,2573.01l-0,-1966.93l-325.223,0l-0,1966.93l325.223,0Z" style="fill:none;stroke:#000;stroke-width:83.33px;stroke-linecap:round;stroke-miterlimit:1.5;"/><path d="M366.89,2573.01l-0,-1966.93l-325.223,0l-0,1966.93l325.223,0Z" style="fill:#fff;"/></g><g transform="matrix(5.55556,0,0,5.55556,-9721.05,-4455.2)"><g transform="matrix(288,0,0,288,2878.41,1021.75)"></g><text x="1931.77px" y="1021.75px" style="font-family:'Inter-Regular_ExtraBold', 'Inter';font-size:288px;fill:none;stroke:#000;stroke-width:15px;">SHAPE</text><g transform="matrix(288,0,0,288,2878.41,1021.75)"></g><text x="1931.77px" y="1021.75px" style="font-family:'Inter-Regular_ExtraBold', 'Inter';font-size:288px;fill:#fff;">SHAPE</text></g></g></g></svg>