<?xml version="1.0" encoding="UTF-8" standalone="no"?>
<!DOCTYPE svg PUBLIC "-//W3C//DTD SVG 1.1//EN" "http://www.w3.org/Graphics/SVG/1.1/DTD/svg11.dtd">
<svg width="100%" height="100%" viewBox="0 0 1920 1920" version="1.1" xmlns="http://www.w3.org/2000/svg" xmlns:xlink="http://www.w3.org/1999/xlink" xml:space="preserve" xmlns:serif="http://www.serif.com/" style="fill-rule:evenodd;clip-rule:evenodd;stroke-linejoin:round;stroke-miterlimit:2;">
    <g transform="matrix(1.25955,0,0,1.16495,-265.987,-31.1046)">
        <path d="M1735.53,438.736C1735.53,211.327 1564.77,26.7 1354.44,26.7L592.263,26.7C381.935,26.7 211.176,211.327 211.176,438.736L211.176,1262.81C211.176,1490.21 381.935,1674.84 592.263,1674.84L1354.44,1674.84C1564.77,1674.84 1735.53,1490.21 1735.53,1262.81L1735.53,438.736Z" style="fill:rgb(37,37,37);"/>
    </g>
    <g transform="matrix(4.16667,0,0,4.16667,-11249.5,-4969.29)">
        <path d="M2943.9,1236.7C2933.84,1236.78 2924.28,1241.21 2915.21,1249.98C2913.56,1251.93 2911.78,1255.1 2909.84,1259.5C2901,1283.76 2896.12,1296.22 2895.2,1296.87C2892.04,1303.19 2888.13,1308.3 2883.47,1312.23C2877.55,1317.17 2870.36,1321.12 2861.9,1324.09C2858.62,1325.47 2851.55,1326.9 2840.67,1328.39L2831.89,1333.2C2820.39,1333.84 2813.69,1334.59 2811.81,1335.43C2808.65,1336.26 2805.78,1337.59 2803.2,1339.43C2798.36,1342.6 2792.61,1349.63 2785.95,1360.51C2769.3,1365.19 2757.98,1371.18 2751.96,1378.49C2725.98,1407.56 2712.75,1426.01 2712.26,1433.83L2712.18,1434.51C2711.79,1436.96 2712.53,1439.62 2714.41,1442.49L2725.91,1454.21C2736.39,1470.68 2743.2,1480.15 2746.34,1482.64C2749.93,1487.37 2764.03,1497.56 2788.63,1513.23C2792.12,1515.98 2794.31,1518.24 2795.2,1520C2795.59,1520.55 2796.04,1521.72 2796.52,1523.49C2793.86,1535.12 2793.32,1542.7 2794.89,1546.25C2796.08,1550.28 2800,1553.95 2806.65,1557.26L2812.39,1569.89C2808.38,1583.96 2807.53,1597.11 2809.84,1609.36L2969.19,1609.36C2958.48,1572.74 2944.87,1546.35 2928.34,1530.18C2929.15,1517.37 2928.3,1507.44 2925.79,1500.4C2927.58,1496.44 2928.3,1493.77 2927.95,1492.38C2927.98,1491.31 2927.41,1489.34 2926.27,1486.46C2929.03,1482.39 2930.49,1479.4 2930.64,1477.5C2931.22,1475.19 2930.72,1471.41 2929.15,1466.16C2930.37,1463.51 2931.04,1459.34 2931.15,1453.66L2938.23,1450.91C2941.44,1461.6 2947.1,1470.41 2955.21,1477.32L2995.74,1508.92C2998.86,1511.07 3001.88,1512.14 3004.83,1512.14C3005.03,1512.14 3005.23,1512.13 3005.43,1512.12L3005.67,1512.13C3012.69,1512.13 3025.68,1505.36 3044.64,1491.82C3059.44,1481.3 3070.83,1470.44 3078.83,1459.23L3078.84,1459.23C3085.4,1463.19 3092.72,1465.18 3100.79,1465.18C3112.31,1464.87 3122.13,1460.69 3130.26,1452.61C3135.16,1447.47 3138.55,1441.73 3140.45,1435.4L3140.44,1435.4C3145.79,1428.06 3148.48,1419.72 3148.49,1410.38C3148.18,1398.77 3144,1388.92 3135.94,1380.84C3127.51,1372.85 3117.59,1368.85 3106.17,1368.84L3106.1,1368.84C3094.49,1369.18 3084.65,1373.38 3076.59,1381.46C3071.71,1386.63 3068.32,1392.36 3066.44,1398.64L3066.43,1398.64C3061.1,1405.95 3058.43,1414.31 3058.41,1423.73C3058.57,1429.51 3059.7,1434.86 3061.79,1439.77C3061.78,1440.04 3061.78,1440.31 3061.78,1440.59C3046.56,1444.78 3030.1,1450.26 3012.41,1457.01C3009.56,1446.43 3007.02,1439.47 3004.78,1436.14C3001.72,1430.81 2996.05,1425.88 2987.78,1421.33C2982.32,1404.93 2976.95,1393.56 2971.67,1387.22C2961.19,1375.35 2951.48,1369.09 2942.56,1368.44C2940.46,1364.3 2936.79,1359.96 2931.55,1355.4L2934.9,1348.67C2942.47,1351.86 2947.82,1353.45 2950.96,1353.45C2952.01,1353.45 2952.81,1353.27 2953.36,1352.92C2955.34,1352.73 2957.25,1349.51 2959.08,1343.24L2963.05,1342.8C2963.86,1342.25 2964.05,1341.04 2963.61,1339.19C2965.58,1339.18 2966.69,1338.63 2966.92,1337.54L2967.86,1332.94C2971.81,1332.24 2973.86,1331.3 2974,1330.14L2973.97,1315.6L2982.54,1305.77C2983.98,1303.17 2985.27,1297.94 2986.43,1290.08C2992.63,1287.89 2995.63,1285.36 2995.42,1282.48C2995.3,1275.55 2988.55,1265.66 2975.17,1252.81C2963.11,1242.46 2952.69,1237.09 2943.9,1236.7ZM2799.4,1431.78C2804.77,1448.38 2808.72,1459.8 2811.26,1466.05C2812.71,1470.08 2816.61,1478.49 2822.94,1491.29C2823.93,1493.46 2824.79,1495.51 2825.5,1497.44C2827.33,1502.34 2829.11,1508.58 2830.85,1516.16C2829.06,1514.91 2826.57,1512.42 2823.38,1508.71C2809.12,1492.29 2802.06,1483.81 2802.22,1483.26C2800.53,1480.81 2799.15,1478.3 2798.05,1475.74C2797.82,1475.54 2796.09,1470.73 2792.86,1461.33C2791.99,1459.07 2791.05,1457.02 2790.06,1455.18C2787.76,1450.82 2783.73,1445.21 2777.96,1438.34L2777.91,1438.29C2778.66,1438.36 2779.41,1438.4 2780.17,1438.4C2786.15,1438.4 2792.56,1436.19 2799.4,1431.78Z" style="fill:white;fill-rule:nonzero;"/>
    </g>
</svg>
